<svg width="128" height="128" viewBox="0 0 128 128" fill="none" xmlns="http://www.w3.org/2000/svg">
  <!-- Background -->
  <rect width="128" height="128" rx="24" fill="#3b82f6"/>

  <!-- Timeline axis -->
  <line x1="20" y1="64" x2="108" y2="64" stroke="white" stroke-width="4" stroke-linecap="round"/>

  <!-- Time markers -->
  <line x1="32" y1="56" x2="32" y2="72" stroke="white" stroke-width="3" stroke-linecap="round" opacity="0.8"/>
  <line x1="52" y1="52" x2="52" y2="76" stroke="white" stroke-width="3" stroke-linecap="round" opacity="0.8"/>
  <line x1="76" y1="52" x2="76" y2="76" stroke="white" stroke-width="3" stroke-linecap="round" opacity="0.8"/>
  <line x1="96" y1="56" x2="96" y2="72" stroke="white" stroke-width="3" stroke-linecap="round" opacity="0.8"/>

  <!-- Timeline items -->
  <rect x="28" y="38" width="20" height="14" rx="3" fill="#10b981"/>
  <rect x="54" y="42" width="16" height="14" rx="3" fill="#f59e0b"/>
  <rect x="74" y="36" width="24" height="14" rx="3" fill="#8b5cf6"/>

  <!-- Timeline items on second row -->
  <rect x="36" y="78" width="14" height="14" rx="3" fill="#ec4899"/>
  <rect x="68" y="80" width="28" height="14" rx="3" fill="#14b8a6"/>

  <!-- Pinpoint markers -->
  <circle cx="32" cy="64" r="4" fill="#ef4444"/>
  <circle cx="52" cy="64" r="4" fill="#ef4444"/>
  <circle cx="76" cy="64" r="4" fill="#ef4444"/>
  <circle cx="96" cy="64" r="4" fill="#ef4444"/>
</svg>
